HIERARCHY
ROOT root
{
	OFFSET	0	13.1	24.9
	CHANNELS 6  Xposition Yposition Zposition Xrotation Yrotation Zrotation
	JOINT spine_1
	{
		OFFSET	0	9.99999	0
		CHANNELS 3  Xrotation Yrotation Zrotation
		JOINT spine_2
		{
			OFFSET	0	112	-10
			CHANNELS 3  Xrotation Yrotation Zrotation
			JOINT spine_3
			{
				OFFSET	0	206.5	19.3
				CHANNELS 3  Xrotation Yrotation Zrotation
				JOINT spine_4
				{
					OFFSET	0	110.4	14.6
					CHANNELS 3  Xrotation Yrotation Zrotation
					JOINT neck_1
					{
						OFFSET	0	71.8	-50.3
						CHANNELS 3  Xrotation Yrotation Zrotation
						JOINT neck_2
						{
							OFFSET	0	86.2	-25.8
							CHANNELS 3  Xrotation Yrotation Zrotation
							JOINT head_ee
							{
								OFFSET	0	179.8	-8.7
								CHANNELS 3  Xrotation Yrotation Zrotation
								End Site
								{
									OFFSET	1	0	0
								}
							}
						}
					}
					JOINT left_clavicle
					{
						OFFSET	-43.2	22.4	-70.8
						CHANNELS 3  Xrotation Yrotation Zrotation
						JOINT left_shoulder
						{
							OFFSET	-93.9	-5.79999	48.7
							CHANNELS 3  Xrotation Yrotation Zrotation
							JOINT left_elbow
							{
								OFFSET	-291.4	-30.8	15.2
								CHANNELS 3  Xrotation Yrotation Zrotation
								JOINT left_lowarm_twist
								{
									OFFSET	-110.7	-3.89999	13.6
									CHANNELS 3  Xrotation Yrotation Zrotation
									JOINT left_hand
									{
										OFFSET	-110.7	-3.89999	13.6
										CHANNELS 3  Xrotation Yrotation Zrotation
										JOINT left_ee
										{
											OFFSET	-80.8	-5.10001	12.1
											CHANNELS 3  Xrotation Yrotation Zrotation
											End Site
											{
												OFFSET	1	0	0
											}
										}
									}
								}
							}
						}
					}
					JOINT right_clavicle
					{
						OFFSET	43.2	22.4	-70.8
						CHANNELS 3  Xrotation Yrotation Zrotation
						JOINT right_shoulder
						{
							OFFSET	93.9	-5.79999	48.7
							CHANNELS 3  Xrotation Yrotation Zrotation
							JOINT right_elbow
							{
								OFFSET	291.4	-30.8	15.2
								CHANNELS 3  Xrotation Yrotation Zrotation
								JOINT right_lowarm_twist
								{
									OFFSET	110.7	-3.89999	13.6
									CHANNELS 3  Xrotation Yrotation Zrotation
									JOINT right_hand
									{
										OFFSET	110.7	-3.89999	13.6
										CHANNELS 3  Xrotation Yrotation Zrotation
										JOINT right_ee
										{
											OFFSET	80.8	-5.10001	12.1
											CHANNELS 3  Xrotation Yrotation Zrotation
											End Site
											{
												OFFSET	1	0	0
											}
										}
									}
								}
							}
						}
					}
				}
			}
		}
	}
	JOINT left_hip
	{
		OFFSET	-82.8	-127.5	0.300001
		CHANNELS 3  Xrotation Yrotation Zrotation
		JOINT left_knee
		{
			OFFSET	-28.2	-396.7	2.2
			CHANNELS 3  Xrotation Yrotation Zrotation
			JOINT left_ankle
			{
				OFFSET	-11.7	-411.3	35.4
				CHANNELS 3  Xrotation Yrotation Zrotation
				JOINT left_toes
				{
					OFFSET	0	-60	-88.6
					CHANNELS 3  Xrotation Yrotation Zrotation
					JOINT left_foot_ee
					{
						OFFSET	-22.5	-16.5	-42.2
						CHANNELS 3  Xrotation Yrotation Zrotation
						End Site
						{
							OFFSET	1	0	0
						}
					}
				}
			}
		}
	}
	JOINT right_hip
	{
		OFFSET	82.8	-127.5	0.300001
		CHANNELS 3  Xrotation Yrotation Zrotation
		JOINT right_knee
		{
			OFFSET	28.2	-396.7	2.2
			CHANNELS 3  Xrotation Yrotation Zrotation
			JOINT right_ankle
			{
				OFFSET	11.7	-411.3	35.4
				CHANNELS 3  Xrotation Yrotation Zrotation
				JOINT right_toes
				{
					OFFSET	0	-60	-88.6
					CHANNELS 3  Xrotation Yrotation Zrotation
					JOINT right_foot_ee
					{
						OFFSET	22.5	-16.5	-42.2
						CHANNELS 3  Xrotation Yrotation Zrotation
						End Site
						{
							OFFSET	1	0	0
						}
					}
				}
			}
		}
	}
}
MOTION
Frames: 6
Frame Time: 0.02
518.22 626.307 -1805.7 -80.5356 68.3842 94.9133 9.19449 -1.36654 -4.15739 9.20344 -1.09947 -4.23573 9.26517 -0.88888 -4.28478 9.24292 -1.55387 -4.09116 -16.6865 -15.0355 14.1966 -17.7506 -36.768 7.48524 -0.0 0.0 -0.0 13.4164 -27.9125 26.3984 6.97906 -11.7369 63.4828 0.738807 -20.1018 0.13095 61.9687 -1.9523 -7.28651 8.38964 -24.3495 49.0568 -0.0 0.0 -0.0 -6.51742 -24.1533 6.07625 14.7856 -34.401 -89.6999 0.196434 5.55796 -0.00953497 43.4906 0.543162 5.39761 -4.25346 14.2594 37.0261 0.0 0.0 0.0 30.071 -32.2532 -12.2161 -11.5524 0.300652 1.74441 41.5267 10.6287 -5.0133 40.1298 -0.0 -0.0 -0.0 0.0 -0.0 54.378 0.230207 -9.61371 -66.1728 2.90209 -9.16872 13.7915 -5.75327 1.93428 28.3062 -0.0 -0.0 0.0 0.0 0.0 
510.544 621.669 -1808.52 -80.656 69.2824 95.421 9.16967 -1.37413 -4.29076 9.17924 -1.09858 -4.3693 9.24223 -0.87969 -4.41848 9.21841 -1.56585 -4.22467 -17.3567 -14.7563 14.9382 -18.4486 -36.5167 8.08383 -0.0 0.0 -0.0 13.5371 -28.1529 26.6448 6.90989 -11.7918 63.4542 0.765769 -20.7737 0.140365 58.0952 -1.60731 -6.92946 8.09134 -26.0769 44.6825 -0.0 0.0 -0.0 -6.65882 -23.4464 6.49407 13.9935 -33.2573 -89.555 0.182143 5.15587 -0.00820084 40.5738 0.379446 5.06236 -4.50179 13.3349 38.6933 0.0 0.0 0.0 27.9852 -33.9961 -12.9576 -12.6689 0.310943 1.91542 42.0297 10.7929 -5.05716 40.2105 -0.0 -0.0 -0.0 0.0 -0.0 53.198 4.72876 -10.5704 -47.6038 1.01994 -7.02796 -6.1385 -16.6984 -0.918864 19.7115 -0.0 -0.0 0.0 0.0 0.0 
509.501 617.491 -1804.71 -80.4574 68.325 94.0139 9.43936 -1.29355 -4.27995 9.44897 -1.01885 -4.3534 9.5049 -0.820795 -4.39497 9.4811 -1.50399 -4.21073 -19.3167 -14.051 14.2519 -20.57 -34.3858 7.12152 -0.0 0.0 -0.0 13.4486 -28.3474 26.4135 6.00783 -12.479 62.6816 0.889242 -23.7734 0.187181 47.9331 -0.824845 -5.89131 6.58001 -16.1807 40.0329 -0.0 0.0 -0.0 -7.24046 -22.6487 7.5833 14.9244 -30.1675 -91.1886 0.178996 5.06727 -0.00792042 38.1736 0.257689 4.78059 -5.46934 11.5225 46.5328 0.0 0.0 0.0 30.0395 -33.281 -11.0645 -12.9261 0.312841 1.95483 42.313 15.3542 -5.14039 36.2696 -0.0 -0.0 -0.0 0.0 -0.0 52.9644 1.74551 -8.98657 -38.5529 0.377283 -5.79464 -4.07769 -27.3732 -0.636022 -4.13112 0.0 0.0 0.0 0.0 0.0 
499.282 619.043 -1806.59 -85.7553 68.3068 99.6564 9.51491 -1.28961 -4.31018 9.52467 -1.013 -4.38331 9.58015 -0.819423 -4.42352 9.55601 -1.50713 -4.23914 -19.8831 -14.3825 14.3172 -21.2954 -34.925 6.8225 -0.0 0.0 -0.0 13.4618 -28.097 26.4783 5.42294 -11.8649 65.1268 1.02601 -26.9415 0.245774 51.7092 -1.09387 -6.29295 7.80118 -26.3461 42.0112 -0.0 0.0 -0.0 -7.14073 -20.4413 8.15359 14.0406 -29.976 -90.6954 0.1803 5.10396 -0.00803597 36.2548 0.16893 4.55189 -5.88353 11.7947 50.8204 0.0 0.0 0.0 30.0342 -30.7429 -10.7729 -11.4173 0.299181 1.72374 42.8911 10.1955 -5.12297 40.2026 -0.0 -0.0 -0.0 0.0 -0.0 47.7455 2.54228 -9.25659 -29.1988 -0.0739205 -4.4321 -4.25247 -29.8822 -0.674193 -3.79092 0.0 0.0 0.0 0.0 0.0 
491.379 623.427 -1814.1 -88.1009 68.3626 102.077 9.5217 -1.23838 -4.32093 9.53157 -0.961196 -4.39079 9.58305 -0.767408 -4.4287 9.55864 -1.45658 -4.25246 -19.5077 -14.3668 13.4601 -20.8836 -34.5382 6.14406 -0.0 0.0 -0.0 13.7429 -28.3578 27.0929 5.28734 -12.5915 65.6133 0.940195 -24.9731 0.208209 46.9023 -0.756078 -5.7787 7.37572 -26.4379 38.5281 -0.0 0.0 -0.0 -7.37855 -21.3565 8.21339 13.4452 -28.3968 -90.2212 0.182065 5.15366 -0.00819369 34.3883 0.0899951 4.32672 -5.87267 8.43934 48.8039 0.0 0.0 0.0 29.6212 -31.9927 -11.313 -13.2681 0.31509 2.00725 41.3458 8.37726 -4.98193 40.1671 -0.0 -0.0 -0.0 0.0 -0.0 46.8488 4.52941 -8.99507 -26.7921 -0.153508 -4.07135 -9.29056 -29.8343 -1.48378 -8.56303 0.0 0.0 0.0 0.0 0.0 
475.729 624.586 -1818.96 -93.5361 69.6204 108.027 9.20805 -1.39488 -4.47253 9.21849 -1.10776 -4.55201 9.28377 -0.88324 -4.60075 9.25779 -1.59806 -4.40415 -18.3889 -14.7551 13.3613 -19.6951 -35.4515 6.21914 -0.0 0.0 -0.0 14.261 -27.8747 28.3666 4.54706 -12.206 65.7437 1.00838 -26.5425 0.237842 41.0777 -0.4065 -5.12085 5.76656 -18.3515 32.0137 -0.0 0.0 -0.0 -7.83633 -22.8334 8.38641 13.1315 -25.1198 -90.1832 0.183969 5.20728 -0.00836574 32.5617 0.0199026 4.10403 -5.89139 9.37544 49.5433 0.0 0.0 0.0 26.545 -32.6075 -12.062 -13.3331 0.315482 2.01722 40.7916 8.8209 -4.93729 36.4576 -0.0 -0.0 -0.0 0.0 -0.0 42.9603 -0.853512 -7.91308 -21.636 -0.272612 -3.28932 -7.94556 -29.3041 -1.26217 -14.1808 0.0 0.0 0.0 0.0 0.0 
